<svg width="591" height="188" viewBox="0 0 591 188" fill="none" xmlns="http://www.w3.org/2000/svg">
<g filter="url(#filter0_d_1_21)">
<path d="M18.3478 74.4288C18.3478 69.2572 18.3478 66.6714 19.509 64.6961C20.5304 62.9585 22.1602 61.5459 24.1649 60.6606C26.4439 59.6541 29.4273 59.6541 35.394 59.6541H135.541C141.507 59.6541 144.491 59.6541 146.77 60.6606C148.774 61.5459 150.404 62.9585 151.426 64.6961C152.587 66.6714 152.587 69.2572 152.587 74.4288V149.225C152.587 154.397 152.587 156.983 151.426 158.958C150.404 160.696 148.774 162.108 146.77 162.994C144.491 164 141.507 164 135.541 164H35.394C29.4273 164 26.4439 164 24.1649 162.994C22.1602 162.108 20.5304 160.696 19.509 158.958C18.3478 156.983 18.3478 154.397 18.3478 149.225V74.4288Z" fill="#B7CEDE"/>
<path d="M78.3349 2.8208C82.5238 -0.940271 89.4763 -0.940265 93.6651 2.82081L164.99 66.8612C171.519 72.7237 166.726 82.5087 157.325 82.5087H14.6751C5.27386 82.5087 0.480596 72.7237 7.01 66.8612L78.3349 2.8208Z" fill="#B7CEDE"/>
</g>
<g filter="url(#filter1_b_1_21)">
<ellipse cx="86" cy="95" rx="33" ry="48" fill="url(#paint0_linear_1_21)"/>
<path d="M86 144.5C95.7489 144.5 104.411 138.751 110.571 129.791C116.735 120.824 120.5 108.519 120.5 95C120.5 81.4809 116.735 69.1758 110.571 60.2091C104.411 51.249 95.7489 45.5 86 45.5C76.2511 45.5 67.5895 51.249 61.4294 60.2091C55.2648 69.1758 51.5 81.4809 51.5 95C51.5 108.519 55.2648 120.824 61.4294 129.791C67.5895 138.751 76.2511 144.5 86 144.5Z" stroke="white" stroke-width="3"/>
</g>
<g filter="url(#filter2_d_1_21)">
<path d="M214.464 162H196.32L189.12 139.536H188.16V162H172.224V102.384H188.16V127.344H189.12L197.76 102.384H215.424L203.808 133.2L214.464 162ZM216.706 138.864C216.706 130.416 218.306 124.304 221.506 120.528C224.77 116.752 229.826 114.864 236.674 114.864C243.586 114.864 248.61 116.72 251.746 120.432C254.882 124.144 256.45 130.256 256.45 138.768C256.45 147.216 254.914 153.36 251.842 157.2C248.77 161.04 243.746 162.96 236.77 162.96C229.794 162.96 224.706 161.04 221.506 157.2C218.306 153.36 216.706 147.248 216.706 138.864ZM239.746 129.744C239.362 128.464 238.338 127.824 236.674 127.824C235.01 127.824 233.954 128.464 233.506 129.744C233.058 131.024 232.834 133.712 232.834 137.808V140.112C232.834 144.656 233.058 147.6 233.506 148.944C233.954 150.288 234.978 150.96 236.578 150.96C238.242 150.96 239.298 150.288 239.746 148.944C240.194 147.6 240.418 144.848 240.418 140.688V137.904C240.418 133.744 240.194 131.024 239.746 129.744ZM287.363 162.096C282.627 162.672 278.499 162.96 274.979 162.96C271.523 162.96 268.803 162.064 266.819 160.272C264.899 158.416 263.939 155.248 263.939 150.768V128.496H259.331V116.592H264.707L265.571 107.76H280.067V116.592H288.611L287.939 128.496H279.971V147.6C279.971 148.944 280.611 149.616 281.891 149.616C282.019 149.616 284.003 149.52 287.843 149.328L287.363 162.096ZM308.135 162H292.295V116.496H308.135V162ZM293.543 112.848C292.199 111.696 291.527 109.84 291.527 107.28C291.527 104.72 292.199 102.832 293.543 101.616C294.887 100.4 297.095 99.792 300.167 99.792C303.239 99.792 305.447 100.4 306.791 101.616C308.135 102.832 308.807 104.72 308.807 107.28C308.807 109.776 308.135 111.632 306.791 112.848C305.447 114 303.239 114.576 300.167 114.576C297.095 114.576 294.887 114 293.543 112.848ZM336.112 142.512H331.696V162H315.568V102.384H335.056C341.904 102.384 346.992 103.952 350.32 107.088C353.648 110.224 355.312 115.376 355.312 122.544C355.312 129.712 353.744 134.832 350.608 137.904C347.472 140.976 342.64 142.512 336.112 142.512ZM337.936 129.552C338.512 128.464 338.8 126.512 338.8 123.696C338.8 120.88 338.48 118.896 337.84 117.744C337.2 116.592 335.92 116.016 334 116.016H331.696V131.184H334.384C336.176 131.184 337.36 130.64 337.936 129.552ZM357.987 138.864C357.987 130.416 359.587 124.304 362.787 120.528C366.051 116.752 371.107 114.864 377.955 114.864C384.867 114.864 389.891 116.72 393.027 120.432C396.163 124.144 397.731 130.256 397.731 138.768C397.731 147.216 396.195 153.36 393.123 157.2C390.051 161.04 385.027 162.96 378.051 162.96C371.075 162.96 365.987 161.04 362.787 157.2C359.587 153.36 357.987 147.248 357.987 138.864ZM381.027 129.744C380.643 128.464 379.619 127.824 377.955 127.824C376.291 127.824 375.235 128.464 374.787 129.744C374.339 131.024 374.115 133.712 374.115 137.808V140.112C374.115 144.656 374.339 147.6 374.787 148.944C375.235 150.288 376.259 150.96 377.859 150.96C379.523 150.96 380.579 150.288 381.027 148.944C381.475 147.6 381.699 144.848 381.699 140.688V137.904C381.699 133.744 381.475 131.024 381.027 129.744ZM418.66 136.176V162H402.724V116.016H416.74L417.7 118.8H418.084C419.556 117.136 421.028 116.08 422.5 115.632C424.036 115.12 426.5 114.864 429.892 114.864L429.22 130.224H424.804C422.308 130.224 420.644 130.608 419.812 131.376C419.044 132.144 418.66 133.744 418.66 136.176ZM458.738 162.096C454.002 162.672 449.874 162.96 446.354 162.96C442.898 162.96 440.178 162.064 438.194 160.272C436.274 158.416 435.314 155.248 435.314 150.768V128.496H430.706V116.592H436.082L436.946 107.76H451.442V116.592H459.986L459.314 128.496H451.346V147.6C451.346 148.944 451.986 149.616 453.266 149.616C453.394 149.616 455.378 149.52 459.218 149.328L458.738 162.096ZM497.942 128.016L497.462 147.888C497.462 149.104 497.75 149.936 498.326 150.384C498.966 150.768 500.022 150.96 501.494 150.96L500.054 162.576C496.342 162.832 494.294 162.96 493.91 162.96C489.174 162.96 486.166 161.328 484.886 158.064H484.406C482.038 161.328 478.39 162.96 473.462 162.96C469.686 162.96 466.774 161.744 464.726 159.312C462.742 156.88 461.75 153.552 461.75 149.328C461.75 144.016 463.382 140.336 466.646 138.288C469.974 136.24 475.19 134.896 482.294 134.256V131.952C482.294 130.16 481.398 129.264 479.606 129.264C476.534 129.264 471.734 130.192 465.206 132.048L462.806 118.032C470.998 115.92 477.814 114.864 483.254 114.864C488.694 114.864 492.502 115.92 494.678 118.032C496.854 120.144 497.942 123.472 497.942 128.016ZM479.414 151.728C481.782 151.728 482.966 150.48 482.966 147.984V143.28C480.598 143.6 478.902 144.112 477.878 144.816C476.918 145.456 476.438 146.576 476.438 148.176C476.438 150.544 477.43 151.728 479.414 151.728ZM539.755 128.016L539.275 147.888C539.275 149.104 539.563 149.936 540.139 150.384C540.779 150.768 541.835 150.96 543.307 150.96L541.867 162.576C538.155 162.832 536.107 162.96 535.723 162.96C530.987 162.96 527.979 161.328 526.699 158.064H526.219C523.851 161.328 520.203 162.96 515.275 162.96C511.499 162.96 508.587 161.744 506.539 159.312C504.555 156.88 503.563 153.552 503.563 149.328C503.563 144.016 505.195 140.336 508.459 138.288C511.787 136.24 517.003 134.896 524.107 134.256V131.952C524.107 130.16 523.211 129.264 521.419 129.264C518.347 129.264 513.547 130.192 507.019 132.048L504.619 118.032C512.811 115.92 519.627 114.864 525.067 114.864C530.507 114.864 534.315 115.92 536.491 118.032C538.667 120.144 539.755 123.472 539.755 128.016ZM521.227 151.728C523.595 151.728 524.779 150.48 524.779 147.984V143.28C522.411 143.6 520.715 144.112 519.691 144.816C518.731 145.456 518.251 146.576 518.251 148.176C518.251 150.544 519.243 151.728 521.227 151.728ZM546.911 151.44V100.464H562.751V146.352C562.751 147.44 562.975 148.208 563.423 148.656C563.935 149.104 564.799 149.328 566.015 149.328L564.767 162.96H559.487C555.263 162.96 552.095 162.096 549.983 160.368C547.935 158.576 546.911 155.6 546.911 151.44ZM585.542 162H569.702V116.496H585.542V162ZM570.95 112.848C569.606 111.696 568.934 109.84 568.934 107.28C568.934 104.72 569.606 102.832 570.95 101.616C572.294 100.4 574.502 99.792 577.574 99.792C580.646 99.792 582.854 100.4 584.198 101.616C585.542 102.832 586.214 104.72 586.214 107.28C586.214 109.776 585.542 111.632 584.198 112.848C582.854 114 580.646 114.576 577.574 114.576C574.502 114.576 572.294 114 570.95 112.848Z" fill="#B7CEDE"/>
</g>
<defs>
<filter id="filter0_d_1_21" x="0" y="0" width="172" height="172" filterUnits="userSpaceOnUse" color-interpolation-filters="sRGB">
<feFlood flood-opacity="0" result="BackgroundImageFix"/>
<feColorMatrix in="SourceAlpha" type="matrix" values="0 0 0 0 0 0 0 0 0 0 0 0 0 0 0 0 0 0 127 0" result="hardAlpha"/>
<feOffset dy="4"/>
<feGaussianBlur stdDeviation="2"/>
<feComposite in2="hardAlpha" operator="out"/>
<feColorMatrix type="matrix" values="0 0 0 0 0 0 0 0 0 0 0 0 0 0 0 0 0 0 0.25 0"/>
<feBlend mode="normal" in2="BackgroundImageFix" result="effect1_dropShadow_1_21"/>
<feBlend mode="normal" in="SourceGraphic" in2="effect1_dropShadow_1_21" result="shape"/>
</filter>
<filter id="filter1_b_1_21" x="46" y="40" width="80" height="110" filterUnits="userSpaceOnUse" color-interpolation-filters="sRGB">
<feFlood flood-opacity="0" result="BackgroundImageFix"/>
<feGaussianBlur in="BackgroundImageFix" stdDeviation="2"/>
<feComposite in2="SourceAlpha" operator="in" result="effect1_backgroundBlur_1_21"/>
<feBlend mode="normal" in="SourceGraphic" in2="effect1_backgroundBlur_1_21" result="shape"/>
</filter>
<filter id="filter2_d_1_21" x="168.224" y="99.792" width="421.99" height="71.168" filterUnits="userSpaceOnUse" color-interpolation-filters="sRGB">
<feFlood flood-opacity="0" result="BackgroundImageFix"/>
<feColorMatrix in="SourceAlpha" type="matrix" values="0 0 0 0 0 0 0 0 0 0 0 0 0 0 0 0 0 0 127 0" result="hardAlpha"/>
<feOffset dy="4"/>
<feGaussianBlur stdDeviation="2"/>
<feComposite in2="hardAlpha" operator="out"/>
<feColorMatrix type="matrix" values="0 0 0 0 0 0 0 0 0 0 0 0 0 0 0 0 0 0 0.25 0"/>
<feBlend mode="normal" in2="BackgroundImageFix" result="effect1_dropShadow_1_21"/>
<feBlend mode="normal" in="SourceGraphic" in2="effect1_dropShadow_1_21" result="shape"/>
</filter>
<linearGradient id="paint0_linear_1_21" x1="41.3529" y1="94.0943" x2="160.25" y2="101.522" gradientUnits="userSpaceOnUse">
<stop stop-color="#136993"/>
<stop offset="1" stop-color="white"/>
</linearGradient>
</defs>
</svg>
